<svg id="Capa_1" enable-background="new 0 0 512 512" height="512" viewBox="0 0 512 512" width="512" xmlns="http://www.w3.org/2000/svg"><path d="m391 88h30v77.003h-30z" fill="#c7cfe1"/><path d="m406 120.003c-24.813 0-45-20.187-45-45v-45c0-8.284 6.716-15 15-15h60c8.284 0 15 6.716 15 15v45c0 24.814-20.187 45-45 45z" fill="#ff80a7"/><path d="m361 0h90v30h-90z" fill="#c7cfe1"/><path d="m241 30h30v45h-30z" fill="#f8bb5e"/><path d="m256 30h15v45h-15z" fill="#bf8740"/><path d="m91 88h30v77.003h-30z" fill="#dfe7f4"/><path d="m106 120.003c-24.813 0-45-20.187-45-45v-45c0-8.284 6.716-15 15-15h60c8.284 0 15 6.716 15 15v45c0 24.814-20.187 45-45 45z" fill="#ffa0be"/><path d="m361 165h-210c0-57.89 47.1-105 105-105s105 47.11 105 105z" fill="#ffdf8e"/><path d="m361 165h-105v-105c57.9 0 105 47.11 105 105z" fill="#f8bb5e"/><path d="m512 195v30c0 8.29-6.72 15-15 15h-482c-8.28 0-15-6.71-15-15v-30c0-24.81 20.19-45 45-45h422c24.81 0 45 20.19 45 45z" fill="#f0f7ff"/><path d="m512 195v30c0 8.29-6.72 15-15 15h-241v-90h211c24.81 0 45 20.19 45 45z" fill="#dfe7f4"/><path d="m211 383.74h90v113.26h-90z" fill="#873a62"/><path d="m256 383.74h45v113.26h-45z" fill="#66335b"/><path d="m512 225v155l-3 4c-16.91 22.55-44.19 36-73 36-22.21 0-43.64-8.36-60-22.94-16.36 14.58-37.79 22.94-60 22.94s-43.64-8.36-60-22.94c-16.36 14.58-37.79 22.94-60 22.94s-43.64-8.36-60-22.94c-16.36 14.58-37.79 22.94-60 22.94-28.8 0-56.09-13.45-73-36l-3-4v-155z" fill="#dfe7f4"/><path d="m512 225v155l-3 4c-16.91 22.55-44.19 36-73 36-22.21 0-43.64-8.36-60-22.94-16.36 14.58-37.79 22.94-60 22.94s-43.64-8.36-60-22.94v-172.06z" fill="#c7cfe1"/><path d="m151 482h210v30h-210z" fill="#ffdf8e"/><path d="m256 482h105v30h-105z" fill="#f8bb5e"/><path d="m61 0h90v30h-90z" fill="#dfe7f4"/></svg>